<svg width="328" height="269" viewBox="0 0 328 269" fill="none" xmlns="http://www.w3.org/2000/svg">
<path d="M1.18053 180.121L0.889789 177.795V173.871L0.30835 169.219V168.347L0.453721 167.475L1.18053 166.603L1.3259 165.876V164.131V163.841L1.47123 163.695L1.76197 163.55H2.34341L2.48878 163.405L2.92485 162.823L2.77952 162.387L2.34341 161.806L2.05271 161.224L2.19804 160.497L2.48878 160.061L2.92485 159.916L3.50633 160.061L3.79703 160.207L4.23314 160.643L4.52384 160.788L4.66921 160.933H4.81458L4.95995 160.788L5.25065 160.497H5.39602L5.83209 160.207L5.39602 159.625L4.52384 158.608V158.026L5.25065 157.009L5.39602 156.282V155.555L5.68676 154.974L5.9775 154.392L6.5589 153.956L7.57645 153.229L8.15794 152.793L8.30326 152.357L8.44859 151.485L8.88475 151.049L9.32081 150.903L9.90221 150.467L10.629 149.595L11.2105 149.305L12.3734 149.741H13.1002L13.827 149.45L14.4085 149.159L14.6992 148.723L15.426 147.56L15.7167 147.269H15.8621V146.979L16.0074 146.688V146.397L16.1528 146.252L16.0074 145.961V145.38L15.8621 144.944L15.5714 144.507V144.362V144.217V144.071V143.926V143.635H15.7167L16.4435 143.054L17.1703 142.182L20.8044 136.949L21.6766 136.513L22.5487 136.222L27.055 135.35L27.7818 135.204L28.6539 134.623L29.2354 134.332L29.8168 134.041L30.5436 133.896L33.3055 134.041L35.1952 134.332L36.2128 134.187L42.318 131.716L42.8994 131.57L43.3355 131.28L43.7716 130.989L44.2077 130.407H44.353L44.6438 130.262H44.9345H45.0798H45.2253L45.3706 130.407V130.553L45.5159 130.698L45.9521 131.861L46.2427 132.442L47.2603 133.605L47.6963 134.187L48.1325 134.478H48.5686L49.0046 134.187L53.8016 129.39L54.6738 128.372L55.1099 127.936L55.6913 127.5L59.0346 126.192L61.0697 125.029L62.0872 125.174L63.8316 125.61L64.9945 125.756L70.9543 125.465L78.2224 125.756L80.1121 125.61L81.275 125.756L82.5832 126.047L83.8915 126.628L84.6183 127.209L85.0544 127.355V127.5L85.3451 127.646H85.6359H86.3627H86.6534L87.0895 127.5H87.2348L87.3802 127.646V127.791L87.5256 127.936L87.6709 128.082L87.9616 128.227L88.2524 128.372H88.6885L89.706 128.518L90.5781 128.808L90.7236 128.954H91.0143H91.305L91.8864 128.808L99.1545 124.884L99.5906 124.448L100.027 123.866L100.463 122.849L100.753 122.413L101.335 121.831L102.062 121.395L105.551 120.087L105.696 119.941L105.841 119.651L105.987 119.505L106.132 119.36H106.277H106.423L106.568 119.215L106.713 119.069L106.859 118.778L107.004 118.633L107.44 118.488L107.731 118.342L107.876 118.197L108.167 117.761L108.312 117.616L108.748 117.325L109.185 117.179L109.33 116.889H109.475L110.057 116.743L109.33 115.29L109.185 114.563V113.981V113.836L109.039 113.691L108.748 113.255L108.603 113.109L108.458 112.673V112.237L108.312 111.946L108.167 111.51L108.022 111.22L107.876 110.493L107.731 110.202V109.766V109.475L108.022 109.185V109.039V108.894V108.603L108.167 108.312V108.167L108.458 107.876V107.731L108.603 107.149V106.859L108.748 106.713L108.894 106.423L109.185 105.987L109.475 105.405L109.621 105.26L109.911 105.114L110.057 104.969L110.202 104.824L110.347 104.678V104.533V103.225V102.498L110.202 102.062L109.911 101.335L109.766 101.044L109.475 100.899L109.185 100.754L108.167 100.172L108.022 100.027H107.731H107.44H107.149L107.004 99.8814L106.568 99.5907H106.423H106.277H106.132H105.987L105.551 99.736L105.405 99.8814H105.26L105.114 100.027L104.824 100.317V100.463H104.678H104.388H104.242L104.097 100.317L103.951 100.172L102.789 98.8639V98.5731L102.643 98.2824V97.4102V96.9741L102.789 96.6834V96.538V96.2473L102.934 95.9566L103.225 95.3751V95.0844L103.515 94.3576H103.661H103.806L104.242 94.6483H104.533L104.678 94.7937L104.824 94.9391L104.969 94.7937H105.114H105.26L105.405 94.6483V94.503L105.26 94.3576V94.2122L105.405 94.0669L105.551 93.9215L105.696 93.7762H105.841L105.987 93.3401V93.1947L105.841 92.904V92.7586V92.6133L105.987 92.3226L106.132 92.0318L106.277 91.8864L106.423 91.7411L106.568 91.5957H106.713H106.859H107.004L107.149 91.4504L107.44 91.0143L107.876 90.7236L108.022 90.4328V90.2875L108.167 90.1421L108.022 89.8514V89.706H108.312V89.5606V89.4153V89.2699L108.458 89.1246L108.748 88.9792V88.8338L108.894 88.6885H109.039L109.185 88.5431H109.33V88.6885H109.475H109.621H109.766L109.911 88.5431L110.057 88.3978L110.202 88.2524L110.347 87.671L110.493 87.5256L110.638 87.3802L111.074 86.9441L111.22 86.7988L111.365 86.6534H111.656H111.946L112.092 86.5081L111.946 86.2173L111.51 85.6359L111.365 85.4905V85.3452V85.0545L111.51 84.9091V84.7637L111.656 84.6183L111.801 84.473L111.946 84.3276L112.237 84.0369L112.382 83.8915H112.528H112.673H112.819L112.964 84.0369H113.109H113.255L113.4 83.8915H113.545L113.691 83.7462V83.6008V83.3101V82.7287L113.4 81.8565L113.109 81.1297L112.964 80.8389L112.819 80.5482L112.673 79.3853L112.528 79.24L112.382 78.9492L112.092 78.5132L111.946 78.2224L111.365 76.1874L110.929 75.1698L110.784 74.8791L110.347 73.8616L110.202 73.7162L109.911 73.5708H109.766V73.4255L109.475 72.9894L109.33 72.844L109.185 72.6987L108.748 72.5533H108.603L108.458 72.4079L108.312 72.1172L108.167 71.9719L108.022 71.8265L107.731 71.6811L107.149 71.5358L106.568 71.2451L106.277 71.0997L105.405 69.9368L105.26 69.6461L104.969 69.0646V68.9193H104.824V68.7739L105.405 66.4481V66.3027L106.568 65.2852L106.713 65.1398L107.004 64.413L107.149 64.2677L107.295 64.1223V63.977L107.44 63.8316L107.876 62.9594L108.603 61.215V61.0697L108.748 60.6336L108.312 58.1625V57.8717L108.458 57.581L109.185 55.982L109.33 54.9645L110.202 54.5284H110.347L111.074 54.6737H111.22H111.365H111.656H111.801V54.5284L112.092 54.3831L112.237 54.0923L112.528 53.8016L112.673 53.6562V53.5109L113.109 53.2201H113.255L113.4 53.0748L113.981 51.7665L114.127 51.4758H114.272L114.418 51.3304H114.563L114.708 51.4758V51.6212H114.854V51.7665H115.144L115.29 51.9119H115.58H115.726H115.871L116.307 51.6212L116.598 51.4758L116.889 51.3304L117.034 51.1851H117.179L117.325 51.0397H117.616L118.924 51.1851H119.069L119.214 51.0397L119.651 50.8944L119.796 50.749H119.941H120.523H120.668L120.959 50.6036L121.54 50.3129L121.686 50.1676H122.122L122.849 49.7314L122.994 49.5861V49.2954L123.139 49.0046L122.849 47.6964L122.994 46.9696V46.6788L122.849 46.3881L122.558 45.516L122.412 45.2252L121.976 41.3005V41.0097H121.831L121.686 40.8644L120.959 40.719H120.814L120.523 40.4283L120.377 40.2829V40.1375H120.232V39.9922L119.941 36.5035L120.087 36.2128L120.232 35.9221L120.377 35.7767L120.523 35.6314L120.959 35.1952L121.25 34.9045L121.395 34.6138L121.831 34.0324L122.122 33.7416L122.412 33.1602V33.0148V32.7241L122.267 32.288L121.831 31.4158L121.686 30.8344L121.54 30.689L121.395 30.5437H121.25H120.959L120.377 30.689H120.232V30.2529L121.25 25.3106V25.1653L121.395 24.8745V24.7292L121.54 24.5838L121.686 24.4385L121.976 24.1477L122.122 24.0024L122.703 23.857L122.994 23.7116L124.157 23.5663L124.884 23.7116L125.61 23.857L125.901 24.0024L128.808 25.456L129.39 25.7467H129.535L129.826 25.6013H130.117L130.843 25.0199L131.425 24.5838V24.4385V24.2931L131.28 23.5663L131.134 22.6941V21.9673V21.822V21.6766L130.989 21.5312L130.698 21.2405L130.553 20.9498V20.8044V20.659V20.5137V20.3683L130.989 19.6415L131.134 19.4962V19.3508V19.2054V19.06L130.989 18.9147L130.553 18.3332V18.1879L130.407 18.0425V17.4611V17.3157V17.1704L130.553 17.025L130.843 16.4435L132.297 14.6992L132.442 14.5539L132.733 14.6992L133.169 14.8446L133.751 15.2807L136.077 16.4435L136.513 16.8796L137.094 17.3157L137.966 18.3332V18.4786L138.112 18.7693L138.693 20.5137V20.659H138.984L139.42 20.8044H140.292H141.019H141.164V20.9498L141.746 21.3858H142.036L143.345 21.0951H143.781H144.071L144.508 21.2405L144.653 21.3858L144.798 21.2405L145.234 20.9498L145.38 20.659L145.67 20.0776L145.961 19.7869L146.688 19.3508L146.833 19.6415V19.9322L147.269 20.659V20.8044V21.5312V21.6766L147.415 21.822L148.142 22.8395V22.9848V23.1302V23.2756V23.4209V23.5663L147.705 24.0024L147.56 24.1477L147.124 25.456L146.833 26.4735L146.252 27.7818L145.67 28.9447L145.38 29.3808L145.234 29.5261L145.089 30.1076L144.944 30.2529V30.3983V30.5437L145.089 30.689L145.234 30.8344H145.525L145.816 30.689L146.106 30.2529L146.252 30.1076L146.543 29.9622L147.996 29.2354H148.142L148.287 29.0901L148.432 28.9447L148.723 28.5086L148.868 28.3633L149.014 28.0725L149.304 27.4911L149.45 27.3457L149.595 27.2003H149.886H150.177L151.776 27.3457L152.212 27.4911L154.392 27.7818H154.683H154.828L155.846 27.2003L156.863 26.1828L157.154 25.7467L157.299 25.1653L157.445 24.7292V24.5838L158.026 24.2931L158.462 24.0024L158.898 23.5663L159.044 23.4209L159.189 23.1302L159.334 22.9848L159.625 22.5488L159.916 22.258L160.207 21.9673V21.822V21.6766L160.352 21.5312L160.497 21.3858H161.224H161.369H161.515L161.66 21.5312L162.096 21.6766H162.387L163.114 21.5312L163.695 21.2405L164.858 20.659L165.585 19.9322L166.021 19.4962L166.166 19.3508H166.457L166.893 19.2054L167.184 19.06H167.329L167.62 18.4786L167.765 18.3332L167.911 18.1879L168.202 17.8972L168.347 17.7518L168.492 17.3157L168.638 17.1704L169.655 16.2982L169.8 16.1528V16.0075L169.946 15.7167L170.091 15.5714V15.426H170.237L170.527 15.2807H170.963H171.545L171.69 15.1353L172.126 14.9899H172.417H172.708H172.853L172.998 15.1353L173.144 14.9899L173.725 14.8446L180.121 11.2105L180.848 10.6291V10.4837V10.193L180.993 10.0476L181.429 9.32082V9.03007V8.8847V8.73938H181.72L182.011 8.594L182.302 8.44863L185.354 6.55894L185.79 5.97746L186.372 5.54139L186.517 5.39602L186.663 5.25065L186.808 5.10532L187.244 4.95995L187.971 4.37851L188.843 3.9424L189.134 3.79703L189.57 3.50633L192.332 2.63415L194.076 1.6166L195.093 1.47127L195.384 1.3259L195.675 1.18053L196.256 0.744462L196.402 0.599091H196.547H196.838L197.274 0.744462H197.565L197.855 0.599091H198.001L198.146 0.744462L198.728 0.889789H198.873H199.018L199.164 0.744462V0.599091L199.309 0.453721L199.454 0.30835H199.6H199.745L200.036 0.599091L200.326 0.889789L200.763 1.18053L201.053 1.3259H201.344L201.635 1.18053L201.78 1.3259H201.926L202.071 1.47127H202.362H202.507L202.798 1.3259H202.943H203.088H203.379L203.67 1.47127H203.961H204.251L204.687 1.76197H204.978H205.124H205.269L205.705 1.47127H205.85V1.3259L205.996 1.47127H206.286L206.722 1.76197L207.304 2.19808L207.449 2.34341H208.176H208.467L208.758 2.19808H208.903H209.048L209.339 2.34341H209.484L209.92 2.63415L210.211 2.77952H210.357L210.502 2.63415H210.793L210.938 2.77952L211.229 2.92489L211.519 3.21559L211.955 3.36096L212.101 3.50633L211.665 4.23314L211.083 4.95995L210.793 5.97746L210.357 7.28575L209.92 8.15789L209.775 8.73938L209.63 9.03007L209.339 10.0476L209.484 10.4837L209.63 10.6291L209.775 11.0651L209.92 11.2105V11.3559V11.7919V11.9373V12.0827V12.2281L209.775 12.3734V12.5188V12.6641L209.92 13.1002V13.2456L210.066 13.3909L210.357 13.6817L210.502 13.827L210.793 13.9724L211.083 14.1177L213.7 14.5539L213.845 14.6992L214.281 14.9899L214.427 15.2807L214.572 15.426L220.823 17.025L222.131 16.5889H222.276L222.422 16.4435L222.567 16.1528L222.712 16.0075L222.858 15.7167L223.294 15.426L223.439 15.2807V15.1353L223.584 14.6992V14.5539H223.73L223.875 14.4085L224.021 14.2631L227.073 12.8095L227.945 12.6641L228.527 12.3734H228.672L229.108 12.2281H230.126L230.562 12.3734L231.434 12.5188L232.015 12.8095L233.324 13.1002H233.614H233.905H234.196L235.504 13.6817H235.795L236.231 13.5363L236.667 13.6817L236.812 13.827L237.103 13.9724L237.539 14.2631L237.685 14.5539L237.83 14.6992L238.121 15.426L238.266 15.5714L238.411 15.7167L240.737 17.4611L241.319 17.8972L242.627 19.06L242.918 19.3508L244.371 20.223L244.517 20.5137L244.807 20.8044L244.953 20.9498L245.534 21.2405L245.825 21.3858L246.116 21.5312H246.406L247.569 21.2405H247.715L247.86 21.3858L248.296 21.822L249.314 22.1127L250.04 22.6941L250.331 22.9848L250.622 23.4209L251.058 23.5663L251.93 24.2931L255.564 26.0375L256.146 26.3281L256.872 26.6189L258.326 26.9096H258.762H258.907L259.344 26.6189H259.489H259.634L259.925 26.9096L260.07 27.2003L260.216 27.3457L260.361 27.4911L261.088 27.7818L261.233 27.9271L261.524 28.3633L261.669 28.5086V28.6539L261.815 28.7993H261.96L262.251 28.9447L262.396 28.7993L263.123 28.6539L263.268 28.5086H263.559H263.85L264.577 28.3633H265.013L265.885 28.6539H266.176L266.321 28.5086H266.466L266.757 28.3633L266.902 28.2179L267.92 27.7818L268.356 27.4911L268.501 27.2003H268.647L268.792 27.055H268.937H269.664L269.81 26.9096H269.955L270.391 26.6189L279.113 34.6138L283.183 38.3932L284.055 45.0799L284.346 45.952L285.218 45.8067L286.526 46.0974L287.98 46.3881H288.125L288.271 46.5335L289.143 47.1149L289.724 46.9696L291.032 46.2428L292.195 45.952L292.922 45.6613L293.94 44.7891L294.23 44.3531L294.376 44.2077H294.666L294.812 44.0623L295.103 43.917L295.248 43.7716H295.393H295.684L295.975 43.917L296.702 44.3531L296.992 44.4984H297.283H297.574L297.864 44.3531L298.446 44.0623H298.591H298.737H299.027L299.318 44.2077L299.754 44.4984L299.899 44.6438L300.045 44.7891L300.772 45.8067H300.917L301.062 45.952L301.499 45.8067H301.789L302.371 45.516L302.661 45.3706L303.534 45.0799H303.679L303.97 45.2252L304.551 45.3706L306.005 46.0974L306.295 46.3881L306.877 47.4056L307.022 47.551H307.168H307.458H307.604L307.749 47.4056V47.2603H308.04H308.476V47.1149L309.057 46.9696L309.203 46.8242L309.493 46.9696L311.819 47.9871L312.691 48.2778L313.418 48.4232H314L314.436 48.2778H314.581L316.18 48.1325L316.471 48.2778L316.616 48.4232H316.907L317.052 48.8593V49.0046L316.907 49.15V49.2954L317.052 49.4408V49.5861H317.343L317.779 49.7314L317.924 49.8768V50.0222V50.3129V50.4583L318.07 50.6036H318.36H318.506L318.797 50.4583H319.087H319.233L319.669 50.6036L320.105 50.8944L320.977 51.4758L321.268 51.9119L321.558 52.0573L321.704 52.6387L321.849 52.7841L321.995 52.9294L322.14 53.0748L322.867 53.5109L323.157 53.6562H323.303H323.448H323.884L324.32 53.5109L325.047 53.8016L325.193 54.0923V54.2377L325.338 54.5284L325.629 54.9645L325.774 55.2552L326.21 55.5459L326.355 55.6913L326.501 55.8367V55.982L326.646 56.4181V56.5635L327.082 57.1449V57.4357V57.581V57.8717V58.1625L326.791 58.3078L326.501 58.4532L326.355 58.5985L326.21 58.8893L325.774 59.9068L325.629 60.3429L325.483 61.215V61.6512V61.9419L325.193 62.814L324.756 63.2501L324.611 63.5408L323.884 64.1223L323.448 64.5584L321.413 65.7213L319.233 69.0646L318.942 69.5007L319.087 69.7914V69.9368V70.2275V70.3729L318.942 70.5182H318.651H318.506H318.36L318.07 70.3729H317.634H317.343L315.744 70.9543L315.599 71.0997L315.453 71.2451L315.308 71.3904L315.163 71.9719V72.2626L315.017 72.4079L315.163 73.4255V74.5884L314.726 76.4781V76.6234L314.872 76.7688V76.9142V77.0595L315.453 77.641L315.599 77.9317L315.889 78.5132V78.8039V78.9492V79.0946V79.3853L315.599 79.5307L315.163 79.8214L315.017 79.9668L314.726 80.1121V80.2575L314.581 80.5482H314.436L314 80.6936H313.418H311.092L310.075 80.5482L309.348 80.2575H309.203H309.057L308.912 80.4028L308.767 80.8389L308.621 80.9843L308.04 81.5657L307.894 81.7111V81.8565L307.749 82.1472L306.877 86.072L306.441 87.3802L306.295 87.9617V88.3978L306.586 89.706L306.732 89.9968L306.586 90.2875V90.5782V90.8689V91.1596V91.8864V92.0318V92.3226V92.4679L306.441 92.6133H306.295L305.859 92.904H305.714V93.0494L305.423 93.4854V93.9215L305.278 95.3751V96.1019V96.2473V96.538L305.423 96.6834L305.859 96.8287H306.005H306.15L306.295 96.6834V96.538L306.586 95.9566L306.732 95.8112V95.6659H306.877L307.168 95.5205H307.458L307.604 95.3751H307.749H307.894L308.04 95.6659V95.8112L307.894 96.1019L307.458 96.6834V96.8287L307.313 96.9741V97.1195V97.2649L307.458 97.4102L307.604 97.5556L307.749 97.4102H307.894L308.185 97.2649L308.331 97.1195H308.476L308.621 97.2649L308.767 97.4102L308.912 97.8463L309.057 98.137V98.4277V98.5731L308.621 99.5907V99.8814V100.172V100.317L308.767 101.044V101.19L308.912 101.335L309.348 101.48H309.493H309.784L309.93 101.335H310.22H310.656H310.947L311.238 101.48L311.383 101.771L311.528 102.062L311.819 103.079L311.965 103.37L312.11 103.661L312.255 103.806L313.564 104.533L313.709 104.678L313.854 104.824L314.145 105.26V105.55L314.29 105.841L314.436 105.987L314.726 106.277L315.889 106.859L316.325 107.004L317.052 107.731L317.343 108.603L317.634 109.185V109.33V109.621V109.911L317.488 110.638L317.343 110.929L317.198 111.074L316.762 111.656L316.616 111.946L316.471 112.237L316.325 112.382L316.471 112.964L317.052 114.272L316.762 114.127L316.18 113.836H316.035L315.889 113.691L315.599 113.545V113.4H315.453L315.308 113.255H315.163H315.017H314.581H314.436H314.145H314L313.854 113.109L313.709 112.964L313.564 112.819V112.673L313.418 112.528H313.273H312.691H312.546L312.255 112.237L310.802 111.801H310.656L310.511 111.656V111.51L310.366 111.22V111.074H310.22L310.075 111.22L309.784 111.365V111.656V111.801L309.93 112.382V112.528L309.784 112.673L309.639 112.819H309.493H309.203H309.057L308.912 112.673L308.767 112.528L308.185 111.946H308.04H307.894H307.749H307.458L306.441 112.237H306.005L305.714 112.528L304.406 113.255L303.97 113.545L303.534 113.691L303.243 113.545H302.807L301.935 113.255H301.789H301.644L301.353 113.4L300.917 113.691L300.481 113.836L300.045 114.127H299.899H299.754H299.609L299.463 113.981L299.173 113.836L299.027 113.691H298.882H298.737H298.591L298.01 113.836L297.719 113.981H297.428L297.283 113.836H297.138L296.992 113.691L296.702 113.4H296.556H296.411L296.265 113.545V113.836V113.981L296.411 114.127L300.336 117.906H300.481V118.197V118.342L300.626 118.633V119.215V119.505L300.481 119.651H300.045H299.899H299.463H298.737H298.591L298.301 119.505L298.01 119.215L297.864 119.069L297.428 118.924L297.283 118.778L296.992 118.342H296.847L296.702 118.197H296.556H296.411H296.12H295.975H295.829L295.539 118.342L295.248 118.633L293.358 120.377H293.213H293.068H292.486H292.195L292.05 120.523L291.905 120.813L291.614 121.25L291.032 122.413L290.451 123.139L289.724 123.721V123.866L289.579 124.157L289.724 124.593V124.884L290.015 125.32V125.756L289.434 126.919L289.724 127.064H289.87L290.306 126.773L291.178 125.901L291.323 126.192L291.614 126.337L291.905 126.483L292.341 126.773L292.631 126.919L292.922 127.209L293.068 127.355L293.504 127.936V128.082L293.649 128.372L293.794 128.954L293.649 129.39V130.262L293.504 131.57L293.213 133.169L292.922 134.623V134.768V135.059L293.068 135.204V135.35H293.213L293.358 135.495H293.649L295.248 135.64H295.393H295.539L295.684 135.786V135.931L295.829 136.077V136.222L295.975 136.367L296.265 138.402V138.838V138.984L296.12 139.274L295.975 139.565V139.711L295.829 139.856L295.539 140.147H295.393L294.957 140.292L294.376 140.437L291.178 140.583L290.887 140.437L290.742 140.292V140.147V140.001L290.596 139.856H290.451H290.16H289.579H288.852H287.98L287.689 140.001L287.398 140.147H287.253L287.108 140.292L286.962 140.583V140.728L286.817 140.873V141.019V141.164L286.962 141.31L287.398 141.6L287.689 142.182V142.327L287.834 142.472L288.271 142.618L288.561 142.763L288.852 142.909H288.997H289.143H289.288L289.579 142.618L289.724 142.472L290.015 142.327H290.16H290.306H290.596H290.742L290.887 142.472L291.032 142.618H291.178L291.469 143.199V143.345H291.614L291.759 143.49L292.195 143.635L292.341 143.781L292.195 144.071V144.362V144.653H292.341L292.631 144.798H292.777L292.922 144.944L293.068 145.089V145.234L292.922 145.816L292.341 146.833V147.124V147.269L292.486 147.56H292.631L292.922 147.705H293.213L293.358 147.851L294.812 149.305L294.957 149.595L295.393 150.177L295.539 150.322L295.684 151.194V152.212V153.084L295.539 153.811V154.101L295.684 154.392H295.829V154.538L295.975 154.683V154.974L295.829 155.846V156.718V157.009L295.684 157.154L295.103 158.753L294.957 159.189V159.48L295.103 159.77V159.916V160.061V160.352L294.957 160.497L294.812 160.643L294.666 160.933L294.376 161.224L294.085 161.37L293.94 161.515L293.649 161.37H293.504H293.358L292.777 160.933H292.631L292.486 161.079L292.341 161.37V161.515V161.66L292.486 161.806L292.922 162.678V162.823V162.968L292.777 163.259L291.905 164.277L291.759 164.422H291.614H291.469H291.323L291.178 164.568L290.887 164.858L290.742 165.294L290.451 165.44L289.579 166.021H289.434L289.143 166.312L288.997 167.184L288.561 170.237V170.527V170.963L288.416 172.708L288.271 172.853L288.125 172.999L287.689 173.289L287.544 173.435L286.962 174.161L286.672 174.307H286.526H286.236H286.09H285.945H285.799L285.654 174.452L285.509 174.597L285.218 175.034L284.927 175.324V175.47L284.782 175.615V176.051V176.778L284.636 177.214L284.055 179.249L283.764 180.267V180.557V180.848V180.993L283.038 182.738L282.892 182.883L282.747 183.028L282.311 183.174L281.875 183.465H281.002L272.862 183.319L272.426 183.465L272.135 183.61L271.99 183.755L271.699 184.046V184.191L271.263 185.645L271.118 185.936L270.827 186.081L269.955 186.662L269.373 186.953L269.228 187.244L268.937 187.535L268.792 187.68V187.825V188.116V188.407L268.937 188.552L269.083 188.988L269.228 189.424L269.373 189.57L269.519 189.715L270.536 190.151L270.1 191.605V192.477L270.246 192.622L270.536 193.349V193.495L270.391 193.64L270.246 193.785L269.955 193.931L269.81 194.076V194.221L269.373 195.53L269.228 195.82L268.792 196.402V196.547V196.692H268.937H269.083H269.228L269.519 196.547L269.664 196.402H269.81L269.955 196.547L270.1 196.692V196.838V197.129L269.373 198.001L269.228 198.291L268.647 199.745L268.356 200.036L268.211 200.327H268.065L267.92 200.472L268.065 200.763V200.908L268.501 201.199L268.211 201.489L268.065 201.635L267.92 201.78L267.484 201.925H267.193L266.902 202.071L266.612 202.798L266.757 203.088L266.612 203.234L266.176 204.106L265.594 205.269L265.449 205.414L265.303 205.705L265.013 205.85L264.867 205.996H264.722H264.577H264.286H264.14L263.995 205.85V205.705H263.85H263.704L263.123 205.85H262.832H262.687H262.542H262.251L262.105 205.56H261.96L261.669 205.705L261.524 205.996L261.233 206.286L260.942 206.432L260.652 206.577L260.506 206.723L260.361 207.013L260.506 207.449V207.74L260.652 207.885H260.797L260.942 208.031H261.088H261.524L261.669 208.176V208.467L261.524 209.048L260.942 210.211L260.652 210.647L260.216 211.229L260.07 211.519L259.925 212.101L259.78 212.392L259.634 212.537L259.344 212.828V212.973L259.198 213.264V213.7V213.991L259.344 214.281V214.572L259.198 214.863L258.471 216.462L258.326 217.043L258.035 218.788L256.436 219.95L256.291 220.096L255.855 220.968V221.113V221.404V222.422V223.003L255.709 223.294V223.439L254.401 225.62L253.82 226.782L253.674 227.655V227.945V228.091H253.965H254.11H254.256L254.547 228.236L254.837 228.381H254.983H255.273L255.419 228.236H255.564H255.709H255.855H256L256.291 228.381V228.527H256.436L256.582 228.817L256.727 229.108L256.872 229.254L256.727 229.69L256.291 230.562L256 230.707L255.419 231.289L255.128 231.434H254.692L254.256 231.143H253.82L253.529 231.434L253.238 231.725L252.657 232.161L251.058 232.597L248.296 234.196L244.662 235.504L242.481 236.812L238.557 238.411L238.121 238.702L237.103 239.574L236.667 239.865L234.777 240.01L234.196 240.446L233.905 240.883L233.76 241.319L233.469 241.9L233.324 242.045L232.597 241.755H232.161L231.87 242.045L231.579 242.482L231.143 242.627V242.336L230.998 242.191V242.045V241.9V241.755L231.143 241.609V241.464L231.289 241.319L231.434 241.173V241.028V240.883V240.592V240.446H231.289L231.143 240.301H230.416H229.69L229.254 240.446L228.818 240.301H228.527L228.381 240.156L228.091 240.01L227.945 239.865H227.8H227.509H226.637H226.201H226.056L225.91 239.72H225.765H225.62H225.183L224.457 239.865L222.131 241.173L221.695 241.319L221.549 241.464H221.113H220.532H220.241L219.805 241.609L219.369 241.755H218.933L218.787 241.609H218.642L218.497 241.464L218.206 241.173L218.061 241.028L217.915 241.173L217.625 241.319L217.479 241.464H217.334H217.043L216.752 241.319H216.462H216.316L216.026 241.609L215.735 241.9H215.589L215.444 241.755L215.153 241.609H215.008H214.717L214.136 241.9H213.845L213.409 242.045L213.264 241.9H213.118L212.973 241.755L212.828 241.609V241.464H212.682L212.537 241.319H212.246L211.374 241.609L209.775 242.336L209.339 242.627L209.048 242.918L208.612 243.063L207.595 243.354L204.106 244.807H203.961L203.67 244.953H203.524L203.234 245.098L202.652 245.825L202.362 245.97L199.6 247.569L198.873 247.715H198.437L198.291 247.569L198.146 247.424L198.001 247.278H197.855H197.565H197.419L196.111 247.424H195.675L194.221 247.715L193.931 247.569H193.64H193.349L193.058 247.715L190.733 249.023L190.587 249.168H190.442L190.006 249.314L189.279 249.459L188.407 249.604H188.116L187.971 249.75L187.535 250.186L187.099 250.913L186.953 251.058V251.203H186.517L185.936 251.058L185.209 250.913H184.918H184.627L183.319 251.349L182.738 251.639L181.575 252.512L179.685 253.529L178.958 253.82H178.813H178.377H177.505H177.214L176.923 253.965L176.487 254.256L176.196 254.401H175.906L175.324 254.256L175.034 254.401L173.289 255.128L172.998 255.419L171.399 256.291L171.254 256.436L170.673 256.872L170.237 257.309L170.091 257.454H169.8H169.51H169.364V257.599V258.035V258.181L169.219 258.471L168.928 258.617L168.783 258.762L166.603 259.344L165.294 260.07L165.004 260.216H164.858L164.713 260.07L164.567 259.925V259.78V259.344V259.198L164.422 259.053V258.907L164.131 258.617H163.986L163.841 258.471H163.55H163.405L163.259 258.617L162.823 259.344L162.678 259.489L162.387 259.634L161.806 260.07L161.515 260.216H161.224L160.207 260.07L160.061 259.925V259.78L159.916 259.634V259.489V259.344L159.771 259.198H159.625H159.48H159.334L158.753 259.634L158.026 260.07L157.735 260.216H157.445H157.299H157.154L157.009 260.07H156.863L156.718 259.925V259.634V259.489L156.863 259.344L157.009 259.198L157.299 258.907L157.445 258.617L157.59 258.326L157.735 258.181L157.59 258.035H157.154L155.991 258.181H155.41L155.119 258.471L155.264 258.617V258.762L155.41 258.907L155.846 259.344V259.489V259.634L155.991 259.78L155.846 260.07L155.7 260.216L153.229 261.815H153.084V261.96V262.251V262.396H153.229L153.375 262.541H153.52H153.665H154.392H154.828H154.974H155.119L155.264 262.687L155.41 262.832V262.978V263.123V263.414V263.704V264.286L155.264 264.431L155.119 264.722L154.974 264.867L154.828 264.722L154.537 264.577H154.247H154.101V264.722L153.956 264.867L154.101 265.158V265.303V265.449L154.247 265.594V265.739L154.101 266.03V266.176L153.811 266.466H153.665H153.52H153.375L153.229 266.321V266.176L153.084 266.03V265.885L152.938 265.739H152.648L152.502 265.885L152.212 266.03L151.921 266.466L151.776 266.612L151.63 266.902H151.34L151.049 266.612L150.758 266.466L150.467 266.321V266.176L150.322 266.03L150.177 265.739V265.594L149.886 265.449L149.741 265.594V265.739L149.45 266.03L149.304 266.176H149.159L148.868 266.03H148.578H148.287V266.176L147.996 266.466V266.612L147.705 266.902L147.415 267.048L147.124 267.193L146.833 267.338L146.106 267.484L143.781 267.92L143.199 267.775L143.054 267.629V267.484V267.338L143.199 267.193L143.345 267.048V266.902V266.757L143.199 266.612L143.054 266.466H142.908L141.891 266.612L141.746 266.757H141.6L141.455 266.902L141.31 267.048L141.019 267.193L140.728 267.338H140.583L140.292 267.193L140.147 267.048H140.001L139.856 267.193L139.711 267.338L139.565 267.484H139.274H138.984L138.693 267.338L138.402 267.193H137.821L137.53 267.048H137.385L137.239 266.902L137.094 266.757L136.949 266.321L136.803 266.03V265.594V265.303V264.577V264.431V264.286L137.094 263.85L136.949 263.559L136.658 263.268L134.914 262.251L134.477 261.815L133.605 261.233V261.088L133.46 260.797L133.605 260.652V260.506H133.751L134.041 260.216L135.495 259.78L135.64 259.634L135.786 259.489L135.931 259.198V259.053L135.495 258.471L135.35 258.326L135.204 258.035V257.599V257.454L135.35 257.163H135.495L135.786 257.018L135.931 256.872V256.727L136.077 256.436V256.291H135.931H135.495H135.059L134.477 256.146L134.187 256L132.879 255.128L132.297 254.837H131.716L131.57 254.692L131.425 254.547V254.256V253.82V253.529L131.28 253.384H131.134L130.117 253.238L128.663 252.657L128.372 252.366L128.082 252.221V251.93L128.227 251.349L128.082 251.203V250.913L127.064 249.75L126.919 249.604L126.773 249.314L126.919 248.587L127.936 246.116L128.518 245.243L128.954 244.953L129.681 244.226L129.826 243.935V243.79L129.099 242.772L128.954 242.627H128.808L128.663 242.482H127.791H127.5L127.355 242.336L127.209 242.191L127.064 241.9L126.919 241.755L127.064 241.609L127.209 241.464H127.791L127.936 241.319L128.082 241.173V241.028L127.936 240.883L127.791 240.592V240.446L127.936 240.301L128.082 240.01L128.227 239.865H128.372H128.518H128.663H128.808L129.099 239.72L129.245 239.429L129.39 239.284V239.138L128.808 238.266L128.082 236.522V236.231V236.086L128.372 235.795L128.518 235.504V235.359V235.213L128.372 235.068V234.923H128.227L128.082 234.777L127.936 234.632L127.791 234.196V233.905V233.76L127.936 233.614L128.082 233.469L128.227 233.178L128.808 232.888L128.954 232.742V232.306L129.535 229.835L129.681 229.544H129.826L130.553 229.69H130.698L130.843 229.544L130.989 229.399L131.57 227.8L131.716 227.655V227.509H131.861L132.152 227.219L132.297 227.073V226.928L132.152 226.782V225.91L132.297 225.474L132.442 225.183V225.038H132.588L132.879 224.747L133.024 224.602V224.457H132.879V224.166L132.733 224.021L132.588 222.567V222.422L132.442 222.276L132.297 222.131L132.152 221.986L132.006 221.84H131.861L131.425 221.695L131.134 221.549H130.843H130.698L130.553 221.695H130.262H130.117H129.971H129.826L129.681 221.404V221.259L129.535 220.968H129.39L128.954 220.823L128.808 220.677L128.663 220.386V219.805H128.518H128.372H128.227L127.936 220.096L127.645 220.532H127.5L127.355 220.677L127.209 220.532H127.064L126.483 220.096L125.756 219.66L125.029 219.514L124.884 219.369H124.738L124.448 219.514L123.575 219.369L123.43 219.514H123.285V219.66L123.139 219.95L122.994 220.096L122.849 220.241H122.703L122.558 220.386H122.267H122.122L121.976 220.532L121.686 220.677L121.54 220.823H121.395H121.25L118.924 221.113L118.488 220.968L118.197 220.823V220.677V220.532V220.386L118.342 219.66L118.488 219.514L118.342 219.224V219.078V218.933L117.761 218.061L117.616 217.77L117.47 217.043L117.325 216.752L116.889 215.444L116.598 214.572V214.281H116.307L116.162 214.136L115.871 213.991L114.563 212.246L114.418 211.956L114.272 211.81V210.938V210.647L113.691 208.612V208.321V208.176V208.031L113.836 207.74L113.981 207.595L113.836 207.449L113.545 207.159L113.255 206.868L112.964 206.286L112.673 205.996L112.528 205.85H112.382H112.092L111.946 205.705L111.656 205.414V205.269L111.51 204.978L111.801 204.397L111.946 202.071L112.237 201.489L112.673 201.199L112.819 201.053L112.964 200.908L113.255 200.327L113.4 199.89V199.6L113.545 198.873L113.691 198.728L113.836 198.582H114.127L114.418 198.437L114.563 198.291L114.854 198.001V197.71L114.999 197.419V196.838V196.692L114.272 194.076L114.127 193.785L113.981 193.64L113.836 193.495V193.349L113.691 193.204L110.784 191.896L110.493 191.605L109.766 190.733L109.621 190.587V190.297V190.151L109.766 189.86V189.424L109.911 188.698L110.057 186.808V186.226L110.202 185.936V185.79H110.347L110.784 185.354L110.929 185.209V185.064L111.074 184.773L111.22 184.337V184.046V183.901V183.319L110.929 182.738L110.638 182.011L109.475 181.139L109.185 180.703L107.149 179.249H106.713L106.423 179.104L105.987 178.813L105.26 178.086V177.941L105.405 177.795V177.505V177.214L105.551 177.069V176.778L105.405 176.487L105.26 176.342L104.678 175.906L104.388 175.615L103.951 175.906L103.225 176.196L102.643 176.342L101.916 176.487L101.19 176.633L100.899 177.069L100.608 177.505L100.172 177.941L99.5906 178.086L99.0092 177.795L98.2824 176.778L97.7009 176.196L97.2648 176.051L93.4854 176.196L93.1947 176.342L92.904 176.633L92.7586 176.923L92.4679 177.069V177.359L92.7586 177.941V178.522L92.6133 179.249L92.3225 179.976L91.8864 180.267L91.5957 180.412H91.305H91.0143L90.7236 180.267L90.5781 179.831L90.4328 179.54V179.104V178.813L90.1421 178.377L89.8513 178.086L89.5607 177.941L89.1245 177.795V179.249L88.9792 179.831L88.6885 180.412L88.5431 180.557L88.1071 180.703H87.9616L87.8163 180.848L87.6709 181.139L87.5256 181.284L87.0895 181.575H86.7988H86.508L85.6359 180.993L84.473 180.557L83.8915 180.121L83.6008 179.394L83.31 178.522L83.0194 177.941L82.2926 177.359L81.7111 178.231L82.4379 180.412L81.7111 181.139H81.275L80.2575 180.557L79.676 180.267H77.2049L75.8966 180.557L75.1698 180.703L74.8791 180.848L74.5883 180.993L72.2626 180.703L71.6811 180.993L70.6636 181.72L70.2275 181.866L69.6461 181.72L67.9017 181.429H67.4656L66.3027 181.575H64.8491L64.1223 182.011L63.8316 182.738L63.5408 183.61L63.2501 184.482L62.814 185.064V185.354L62.9594 185.645L63.1048 186.226V187.825L63.2501 188.262L63.3955 189.134L63.5408 189.57L63.3955 189.86L62.5233 190.587L62.0872 190.297L60.7789 189.715L60.4883 189.424L60.3429 186.953L60.4883 184.046L60.1975 182.592L59.4707 181.575L58.4532 181.429L57.581 182.156L56.7088 184.337L56.1274 185.209L55.2552 186.081L54.2376 186.517L53.2202 186.081L52.9294 185.645L52.4934 184.482L51.7665 183.465L51.0397 182.011L50.8943 181.429L50.6036 179.976V179.249L50.8943 178.377V178.086L51.0397 177.65L51.1851 177.505H51.3304L52.3479 177.069L52.4934 176.487L52.2026 176.196L51.6211 175.906L51.0397 175.76L50.3129 175.906L48.2778 176.342L47.6963 175.906L45.0798 175.034L43.6262 174.743H33.7416L29.8168 174.161L20.3683 172.853L19.6415 172.417L18.6239 171.109L17.8971 170.382L17.025 170.091H16.0074L14.9899 170.382L13.9724 170.963L13.3909 172.126L11.2105 174.307L10.629 174.597L9.90221 174.888L4.81458 176.778L4.23314 177.069L2.48878 178.522L1.18053 180.121Z" fill="#3B729F" stroke="white" stroke-width="0.616688" stroke-linejoin="round"/>
</svg>
