<svg width="328" height="274" viewBox="0 0 328 274" fill="none" xmlns="http://www.w3.org/2000/svg">
<path d="M1.18113 183.742L0.890191 181.369V177.365L0.30835 172.62V171.73L0.453821 170.841L1.18113 169.951L1.32661 169.209V167.43V167.133L1.47203 166.985L1.76298 166.837H2.34482L2.49029 166.689L2.92666 166.095L2.78123 165.651L2.34482 165.057L2.05392 164.464L2.19935 163.723L2.49029 163.278L2.92666 163.13L3.50855 163.278L3.79944 163.426L4.23586 163.871L4.52676 164.019L4.67223 164.168H4.8177L4.96317 164.019L5.25407 163.723H5.39954L5.83591 163.426L5.39954 162.833L4.52676 161.795V161.202L5.25407 160.164L5.39954 159.422V158.681L5.69048 158.088L5.98143 157.495L6.56323 157.05L7.58148 156.308L8.16337 155.863L8.30879 155.419L8.45422 154.529L8.89068 154.084L9.32705 153.936L9.90885 153.491L10.6362 152.601L11.218 152.305L12.3817 152.749H13.109L13.8364 152.453L14.4182 152.156L14.7092 151.711L15.4365 150.525L15.7274 150.229H15.8729V149.932L16.0183 149.635V149.339L16.1638 149.19L16.0183 148.894V148.301L15.8729 147.856L15.5819 147.411V147.263V147.114V146.966V146.818V146.521H15.7274L16.4547 145.928L17.182 145.038L20.8185 139.7L21.6914 139.255L22.5641 138.959L27.0735 138.069L27.8008 137.921L28.6736 137.327L29.2554 137.031L29.8372 136.734L30.5646 136.586L33.3284 136.734L35.2194 137.031L36.2376 136.883L42.3471 134.362L42.9289 134.213L43.3653 133.917L43.8017 133.62L44.2381 133.027H44.3835L44.6745 132.879H44.9654H45.1108H45.2563L45.4018 133.027V133.175L45.5472 133.324L45.9837 134.51L46.2745 135.103L47.2928 136.289L47.7291 136.883L48.1656 137.179H48.602L49.0383 136.883L53.8386 131.989L54.7114 130.951L55.1478 130.506L55.7296 130.061L59.0753 128.727L61.1117 127.54L62.13 127.689L63.8755 128.133L65.0392 128.282L71.0032 127.985L78.2763 128.282L80.1674 128.133L81.3311 128.282L82.6402 128.578L83.9494 129.171L84.6767 129.765L85.1131 129.913V130.061L85.404 130.21H85.6949H86.4222H86.7132L87.1496 130.061H87.295L87.4405 130.21V130.358L87.5859 130.506L87.7314 130.654L88.0223 130.803L88.3132 130.951H88.7496L89.7679 131.099L90.6406 131.396L90.7861 131.544H91.0771H91.3679L91.9498 131.396L99.2229 127.392L99.6593 126.947L100.096 126.354L100.532 125.316L100.823 124.871L101.405 124.278L102.132 123.833L105.623 122.498L105.769 122.35L105.914 122.054L106.06 121.905L106.205 121.757H106.351H106.496L106.642 121.609L106.787 121.46L106.932 121.164L107.078 121.016L107.514 120.867L107.805 120.719L107.951 120.571L108.242 120.126L108.387 119.978L108.823 119.681L109.26 119.533L109.405 119.236H109.551L110.133 119.088L109.405 117.605L109.26 116.863V116.27V116.122L109.114 115.974L108.823 115.529L108.678 115.381L108.533 114.936V114.491L108.387 114.194L108.242 113.749L108.096 113.453L107.951 112.711L107.805 112.415V111.97V111.673L108.096 111.377V111.229V111.08V110.784L108.242 110.487V110.339L108.533 110.042V109.894L108.678 109.301V109.004L108.823 108.856L108.969 108.559L109.26 108.114L109.551 107.521L109.696 107.373L109.987 107.225L110.133 107.076L110.278 106.928L110.424 106.78V106.632V105.297V104.556L110.278 104.111L109.987 103.369L109.842 103.073L109.551 102.924L109.26 102.776L108.242 102.183L108.096 102.035H107.805H107.514H107.223L107.078 101.886L106.642 101.59H106.496H106.351H106.205H106.06L105.623 101.738L105.478 101.886H105.332L105.187 102.035L104.896 102.331V102.479H104.751H104.46H104.314L104.169 102.331L104.023 102.183L102.86 100.848V100.552L102.714 100.255V99.3654V98.9205L102.86 98.624V98.4757V98.1791L103.005 97.8825L103.296 97.2893V96.9928L103.587 96.2513H103.732H103.878L104.314 96.5479H104.605L104.751 96.6962L104.896 96.8445L105.041 96.6962H105.187H105.332L105.478 96.5479V96.3996L105.332 96.2513V96.103L105.478 95.9547L105.623 95.8064L105.769 95.6582H105.914L106.06 95.2133V95.065L105.914 94.7684V94.6202V94.4719L106.06 94.1753L106.205 93.8787L106.351 93.7304L106.496 93.5821L106.642 93.4339H106.787H106.932H107.078L107.223 93.2856L107.514 92.8407L107.951 92.5441L108.096 92.2475V92.0992L108.242 91.951L108.096 91.6544V91.5061H108.387V91.3578V91.2095V91.0612L108.533 90.9129L108.823 90.7646V90.6163L108.969 90.4681H109.114L109.26 90.3198H109.405V90.4681H109.551H109.696H109.842L109.987 90.3198L110.133 90.1715L110.278 90.0232L110.424 89.43L110.569 89.2817L110.715 89.1334L111.151 88.6886L111.296 88.5403L111.442 88.392H111.733H112.024L112.169 88.2437L112.024 87.9471L111.587 87.354L111.442 87.2057V87.0574V86.7608L111.587 86.6125V86.4643L111.733 86.316L111.878 86.1677L112.024 86.0194L112.315 85.7228L112.46 85.5745H112.606H112.751H112.896L113.042 85.7228H113.187H113.333L113.478 85.5745H113.624L113.769 85.4262V85.278V84.9814V84.3882L113.478 83.4985L113.187 82.757L113.042 82.4604L112.896 82.1639L112.751 80.9775L112.606 80.8293L112.46 80.5327L112.169 80.0878L112.024 79.7913L111.442 77.7152L111.005 76.6772L110.86 76.3806L110.424 75.3426L110.278 75.1943L109.987 75.046H109.842V74.8977L109.551 74.4528L109.405 74.3045L109.26 74.1563L108.823 74.008H108.678L108.533 73.8597L108.387 73.5631L108.242 73.4148L108.096 73.2665L107.805 73.1182L107.223 72.9699L106.642 72.6734L106.351 72.5251L105.478 71.3388L105.332 71.0422L105.041 70.4491V70.3008H104.896V70.1525L105.478 67.7798V67.6315L106.642 66.5935L106.787 66.4452L107.078 65.7038L107.223 65.5555L107.369 65.4072V65.2589L107.514 65.1106L107.951 64.2209L108.678 62.4414V62.2932L108.823 61.8483L108.387 59.3274V59.0308L108.533 58.7342L109.26 57.1031L109.405 56.065L110.278 55.6202H110.424L111.151 55.7684H111.296H111.442H111.733H111.878V55.6202L112.169 55.4719L112.315 55.1753L112.606 54.8787L112.751 54.7304V54.5821L113.187 54.2855H113.333L113.478 54.1373L114.06 52.8026L114.206 52.5061H114.351L114.497 52.3578H114.642L114.787 52.5061V52.6544H114.933V52.8026H115.224L115.369 52.9509H115.66H115.806H115.951L116.388 52.6544L116.678 52.5061L116.969 52.3578L117.115 52.2095H117.26L117.406 52.0612H117.697L119.006 52.2095H119.151L119.297 52.0612L119.733 51.9129L119.879 51.7646H120.024H120.606H120.751L121.042 51.6163L121.624 51.3198L121.77 51.1715H122.206L122.933 50.7266L123.079 50.5783V50.2818L123.224 49.9852L122.933 48.6506L123.079 47.9091V47.6125L122.933 47.316L122.642 46.4262L122.497 46.1296L122.061 42.1259V41.8293H121.915L121.77 41.681L121.042 41.5327H120.897L120.606 41.2361L120.46 41.0878V40.9395H120.315V40.7913L120.024 37.2323L120.17 36.9357L120.315 36.6391L120.46 36.4909L120.606 36.3426L121.042 35.8977L121.333 35.6012L121.479 35.3046L121.915 34.7114L122.206 34.4148L122.497 33.8217V33.6734V33.3768L122.352 32.9319L121.915 32.0422L121.77 31.449L121.624 31.3007L121.479 31.1525H121.333H121.042L120.46 31.3007H120.315V30.8559L121.333 25.8141V25.6658L121.479 25.3692V25.2209L121.624 25.0726L121.77 24.9243L122.061 24.6277L122.206 24.4795L122.788 24.3312L123.079 24.1829L124.243 24.0346L124.97 24.1829L125.697 24.3312L125.988 24.4795L128.897 25.9624L129.479 26.2589H129.625L129.916 26.1106H130.206L130.934 25.5175L131.516 25.0726V24.9243V24.776L131.37 24.0346L131.225 23.1448V22.4034V22.2551V22.1068L131.079 21.9586L130.788 21.662L130.643 21.3654V21.2171V21.0688V20.9205V20.7723L131.079 20.0308L131.225 19.8825V19.7342V19.5859V19.4376L131.079 19.2894L130.643 18.6962V18.5479L130.497 18.3996V17.8065V17.6582V17.5099L130.643 17.3616L130.934 16.7684L132.388 14.9889L132.534 14.8407L132.825 14.9889L133.261 15.1372L133.843 15.5821L136.17 16.7684L136.607 17.2133L137.189 17.6582L138.061 18.6962V18.8445L138.207 19.1411L138.789 20.9205V21.0688H139.08L139.516 21.2171H140.389H141.116H141.262V21.3654L141.843 21.8103H142.134L143.444 21.5137H143.88H144.171L144.607 21.662L144.753 21.8103L144.898 21.662L145.335 21.3654L145.48 21.0688L145.771 20.4757L146.062 20.1791L146.789 19.7342L146.935 20.0308V20.3274L147.371 21.0688V21.2171V21.9586V22.1068L147.517 22.2551L148.244 23.2931V23.4414V23.5897V23.738V23.8863V24.0346L147.807 24.4795L147.662 24.6277L147.226 25.9624L146.935 27.0004L146.353 28.335L145.771 29.5213L145.48 29.9661L145.335 30.1144L145.189 30.7076L145.044 30.8559V31.0042V31.1525L145.189 31.3007L145.335 31.449H145.626L145.916 31.3007L146.207 30.8559L146.353 30.7076L146.644 30.5593L148.098 29.8178H148.244L148.389 29.6696L148.535 29.5213L148.826 29.0764L148.971 28.9282L149.117 28.6316L149.408 28.0384L149.553 27.8901L149.698 27.7418H149.989H150.28L151.88 27.8901L152.317 28.0384L154.499 28.335H154.79H154.935L155.953 27.7418L156.972 26.7038L157.263 26.2589L157.408 25.6658L157.553 25.2209V25.0726L158.135 24.776L158.572 24.4795L159.008 24.0346L159.154 23.8863L159.299 23.5897L159.445 23.4414L159.735 22.9966L160.026 22.7L160.317 22.4034V22.2551V22.1068L160.463 21.9586L160.608 21.8103H161.336H161.481H161.626L161.772 21.9586L162.208 22.1068H162.499L163.226 21.9586L163.808 21.662L164.972 21.0688L165.699 20.3274L166.136 19.8825L166.281 19.7342H166.572L167.008 19.5859L167.299 19.4376H167.445L167.736 18.8445L167.881 18.6962L168.027 18.5479L168.318 18.2513L168.463 18.103L168.609 17.6582L168.754 17.5099L169.772 16.6201L169.918 16.4718V16.3236L170.063 16.027L170.209 15.8787V15.7304H170.354L170.645 15.5821H171.082H171.663L171.809 15.4338L172.245 15.2855H172.536H172.827H172.973L173.118 15.4338L173.263 15.2855L173.845 15.1372L180.246 11.43L180.973 10.8369V10.6886V10.392L181.118 10.2437L181.555 9.50229V9.20569V9.05739V8.90914H181.846L182.137 8.76084L182.428 8.61254L185.482 6.6848L185.919 6.09161L186.501 5.64676L186.646 5.49846L186.791 5.35017L186.937 5.20191L187.373 5.05362L188.101 4.46047L188.973 4.01557L189.264 3.86728L189.701 3.57073L192.464 2.68098L194.21 1.64294L195.228 1.49469L195.519 1.34639L195.81 1.19809L196.392 0.753244L196.537 0.604946H196.683H196.974L197.41 0.753244H197.701L197.992 0.604946H198.138L198.283 0.753244L198.865 0.901497H199.01H199.156L199.301 0.753244V0.604946L199.447 0.456648L199.592 0.30835H199.738H199.883L200.174 0.604946L200.465 0.901497L200.901 1.19809L201.192 1.34639H201.483L201.774 1.19809L201.92 1.34639H202.065L202.21 1.49469H202.501H202.647L202.938 1.34639H203.083H203.229H203.52L203.811 1.49469H204.101H204.392L204.829 1.79124H205.12H205.265H205.411L205.847 1.49469H205.993V1.34639L206.138 1.49469H206.429L206.865 1.79124L207.447 2.23613L207.593 2.38439H208.32H208.611L208.902 2.23613H209.047H209.193L209.484 2.38439H209.629L210.065 2.68098L210.356 2.82928H210.502L210.647 2.68098H210.938L211.084 2.82928L211.375 2.97758L211.666 3.27413L212.102 3.42243L212.247 3.57073L211.811 4.31217L211.229 5.05362L210.938 6.09161L210.502 7.42625L210.065 8.31595L209.92 8.90914L209.775 9.20569L209.484 10.2437L209.629 10.6886L209.775 10.8369L209.92 11.2817L210.065 11.43V11.5783V12.0232V12.1715V12.3198V12.4681L209.92 12.6164V12.7646V12.9129L210.065 13.3578V13.5061L210.211 13.6544L210.502 13.951L210.647 14.0993L210.938 14.2475L211.229 14.3958L213.847 14.8407L213.993 14.9889L214.429 15.2855L214.575 15.5821L214.72 15.7304L220.975 17.3616L222.284 16.9167H222.43L222.575 16.7684L222.721 16.4718L222.866 16.3236L223.012 16.027L223.448 15.7304L223.593 15.5821V15.4338L223.739 14.9889V14.8407H223.884L224.03 14.6924L224.175 14.5441L227.23 13.0612L228.103 12.9129L228.685 12.6164H228.83L229.267 12.4681H230.285L230.721 12.6164L231.594 12.7646L232.176 13.0612L233.485 13.3578H233.776H234.067H234.358L235.667 13.951H235.958L236.394 13.8027L236.831 13.951L236.976 14.0993L237.267 14.2475L237.703 14.5441L237.849 14.8407L237.994 14.9889L238.285 15.7304L238.431 15.8787L238.576 16.027L240.904 17.8065L241.485 18.2513L242.795 19.4376L243.086 19.7342L244.54 20.624L244.686 20.9205L244.977 21.2171L245.122 21.3654L245.704 21.662L245.995 21.8103L246.286 21.9586H246.577L247.74 21.662H247.886L248.031 21.8103L248.468 22.2551L249.486 22.5517L250.213 23.1448L250.504 23.4414L250.795 23.8863L251.231 24.0346L252.104 24.776L255.741 26.5555L256.323 26.8521L257.05 27.1487L258.505 27.4453H258.941H259.086L259.523 27.1487H259.668H259.814L260.105 27.4453L260.25 27.7418L260.396 27.8901L260.541 28.0384L261.268 28.335L261.414 28.4833L261.705 28.9282L261.85 29.0764V29.2247L261.996 29.373H262.141L262.432 29.5213L262.577 29.373L263.305 29.2247L263.45 29.0764H263.741H264.032L264.759 28.9282H265.196L266.069 29.2247H266.36L266.505 29.0764H266.65L266.941 28.9282L267.087 28.7799L268.105 28.335L268.541 28.0384L268.687 27.7418H268.832L268.978 27.5935H269.123H269.851L269.996 27.4453H270.142L270.578 27.1487L279.306 35.3046L283.379 39.1601L284.251 45.9814L284.542 46.8711L285.415 46.7228L286.724 47.0194L288.179 47.316H288.324L288.47 47.4643L289.343 48.0574L289.924 47.9091L291.234 47.1677L292.397 46.8711L293.125 46.5745L294.143 45.6848L294.434 45.2399L294.579 45.0916H294.87L295.016 44.9433L295.307 44.795L295.452 44.6467H295.598H295.888L296.179 44.795L296.907 45.2399L297.198 45.3882H297.488H297.779L298.07 45.2399L298.652 44.9433H298.798H298.943H299.234L299.525 45.0916L299.961 45.3882L300.107 45.5365L300.252 45.6848L300.98 46.7228H301.125L301.271 46.8711L301.707 46.7228H301.998L302.58 46.4262L302.871 46.2779L303.743 45.9814H303.889L304.18 46.1296L304.762 46.2779L306.216 47.0194L306.507 47.316L307.089 48.354L307.234 48.5023H307.38H307.671H307.816L307.962 48.354V48.2057H308.253H308.689V48.0574L309.271 47.9091L309.416 47.7608L309.707 47.9091L312.035 48.9472L312.908 49.2437L313.635 49.392H314.217L314.653 49.2437H314.799L316.399 49.0954L316.69 49.2437L316.835 49.392H317.126L317.271 49.8369V49.9852L317.126 50.1335V50.2818L317.271 50.43V50.5783H317.562L317.999 50.7266L318.144 50.8749V51.0232V51.3198V51.468L318.29 51.6163H318.581H318.726L319.017 51.468H319.308H319.453L319.89 51.6163L320.326 51.9129L321.199 52.5061L321.49 52.9509L321.781 53.0992L321.926 53.6924L322.072 53.8407L322.217 53.989L322.363 54.1373L323.09 54.5821L323.381 54.7304H323.526H323.672H324.108L324.545 54.5821L325.272 54.8787L325.417 55.1753V55.3236L325.563 55.6202L325.854 56.065L325.999 56.3616L326.436 56.6582L326.581 56.8065L326.727 56.9548V57.1031L326.872 57.5479V57.6962L327.308 58.2893V58.5859V58.7342V59.0308V59.3274L327.017 59.4756L326.727 59.6239L326.581 59.7722L326.436 60.0688L325.999 61.1068L325.854 61.5517L325.708 62.4414V62.8863V63.1829L325.417 64.0726L324.981 64.5175L324.835 64.8141L324.108 65.4072L323.672 65.8521L321.635 67.0384L319.453 70.4491L319.162 70.8939L319.308 71.1905V71.3388V71.6354V71.7837L319.162 71.932H318.872H318.726H318.581L318.29 71.7837H317.853H317.562L315.962 72.3768L315.817 72.5251L315.671 72.6734L315.526 72.8217L315.38 73.4148V73.7114L315.235 73.8597L315.38 74.8977V76.084L314.944 78.0118V78.1601L315.09 78.3084V78.4567V78.605L315.671 79.1981L315.817 79.4947L316.108 80.0878V80.3844V80.5327V80.681V80.9775L315.817 81.1258L315.38 81.4224L315.235 81.5707L314.944 81.719V81.8673L314.799 82.1639H314.653L314.217 82.3122H313.635H311.307L310.289 82.1639L309.562 81.8673H309.416H309.271L309.126 82.0156L308.98 82.4604L308.835 82.6087L308.253 83.2019L308.107 83.3502V83.4985L307.962 83.7951L307.089 87.7988L306.653 89.1334L306.507 89.7266V90.1715L306.798 91.5061L306.944 91.8027L306.798 92.0992V92.3958V92.6924V92.989V93.7304V93.8787V94.1753V94.3235L306.653 94.4719H306.507L306.071 94.7684H305.925V94.9167L305.634 95.3616V95.8064L305.489 97.2893V98.0308V98.1791V98.4757L305.634 98.624L306.071 98.7722H306.216H306.362L306.507 98.624V98.4757L306.798 97.8825L306.944 97.7342V97.5859H307.089L307.38 97.4376H307.671L307.816 97.2893H307.962H308.107L308.253 97.5859V97.7342L308.107 98.0308L307.671 98.624V98.7722L307.525 98.9205V99.0688V99.2171L307.671 99.3654L307.816 99.5137L307.962 99.3654H308.107L308.398 99.2171L308.544 99.0688H308.689L308.835 99.2171L308.98 99.3654L309.126 99.8103L309.271 100.107V100.403V100.552L308.835 101.59V101.886V102.183V102.331L308.98 103.073V103.221L309.126 103.369L309.562 103.517H309.707H309.998L310.144 103.369H310.435H310.871H311.162L311.453 103.517L311.598 103.814L311.744 104.111L312.035 105.149L312.18 105.445L312.326 105.742L312.471 105.89L313.78 106.632L313.926 106.78L314.071 106.928L314.362 107.373V107.67L314.508 107.966L314.653 108.114L314.944 108.411L316.108 109.004L316.544 109.152L317.271 109.894L317.562 110.784L317.853 111.377V111.525V111.822V112.118L317.708 112.86L317.562 113.156L317.417 113.305L316.981 113.898L316.835 114.194L316.69 114.491L316.544 114.639L316.69 115.232L317.271 116.567L316.981 116.419L316.399 116.122H316.253L316.108 115.974L315.817 115.825V115.677H315.671L315.526 115.529H315.38H315.235H314.799H314.653H314.362H314.217L314.071 115.381L313.926 115.232L313.78 115.084V114.936L313.635 114.787H313.489H312.908H312.762L312.471 114.491L311.017 114.046H310.871L310.726 113.898V113.749L310.58 113.453V113.305H310.435L310.289 113.453L309.998 113.601V113.898V114.046L310.144 114.639V114.787L309.998 114.936L309.853 115.084H309.707H309.416H309.271L309.126 114.936L308.98 114.787L308.398 114.194H308.253H308.107H307.962H307.671L306.653 114.491H306.216L305.925 114.787L304.616 115.529L304.18 115.825L303.743 115.974L303.453 115.825H303.016L302.143 115.529H301.998H301.852L301.561 115.677L301.125 115.974L300.689 116.122L300.252 116.419H300.107H299.961H299.816L299.67 116.27L299.379 116.122L299.234 115.974H299.089H298.943H298.798L298.216 116.122L297.925 116.27H297.634L297.488 116.122H297.343L297.198 115.974L296.907 115.677H296.761H296.616L296.47 115.825V116.122V116.27L296.616 116.419L300.543 120.274H300.689V120.571V120.719L300.834 121.016V121.609V121.905L300.689 122.054H300.252H300.107H299.67H298.943H298.798L298.507 121.905L298.216 121.609L298.07 121.46L297.634 121.312L297.488 121.164L297.198 120.719H297.052L296.907 120.571H296.761H296.616H296.325H296.179H296.034L295.743 120.719L295.452 121.016L293.561 122.795H293.416H293.27H292.688H292.397L292.252 122.943L292.106 123.24L291.816 123.685L291.234 124.871L290.652 125.613L289.924 126.206V126.354L289.779 126.651L289.924 127.095V127.392L290.215 127.837V128.282L289.634 129.468L289.924 129.616H290.07L290.506 129.32L291.379 128.43L291.525 128.727L291.816 128.875L292.106 129.023L292.543 129.32L292.834 129.468L293.125 129.765L293.27 129.913L293.706 130.506V130.654L293.852 130.951L293.997 131.544L293.852 131.989V132.879L293.706 134.213L293.416 135.844L293.125 137.327V137.476V137.772L293.27 137.921V138.069H293.416L293.561 138.217H293.852L295.452 138.365H295.598H295.743L295.888 138.514V138.662L296.034 138.81V138.959L296.179 139.107L296.47 141.183V141.628V141.776L296.325 142.073L296.179 142.369V142.517L296.034 142.666L295.743 142.962H295.598L295.161 143.111L294.579 143.259L291.379 143.407L291.088 143.259L290.943 143.111V142.962V142.814L290.797 142.666H290.652H290.361H289.779H289.052H288.179L287.888 142.814L287.597 142.962H287.452L287.306 143.111L287.161 143.407V143.556L287.015 143.704V143.852V144L287.161 144.149L287.597 144.445L287.888 145.038V145.187L288.033 145.335L288.47 145.483L288.761 145.632L289.052 145.78H289.197H289.343H289.488L289.779 145.483L289.924 145.335L290.215 145.187H290.361H290.506H290.797H290.943L291.088 145.335L291.234 145.483H291.379L291.67 146.076V146.225H291.816L291.961 146.373L292.397 146.521L292.543 146.67L292.397 146.966V147.263V147.559H292.543L292.834 147.708H292.979L293.125 147.856L293.27 148.004V148.152L293.125 148.746L292.543 149.784V150.08V150.229L292.688 150.525H292.834L293.125 150.673H293.416L293.561 150.822L295.016 152.305L295.161 152.601L295.598 153.194L295.743 153.343L295.888 154.232V155.27V156.16L295.743 156.902V157.198L295.888 157.495H296.034V157.643L296.179 157.791V158.088L296.034 158.978V159.867V160.164L295.888 160.312L295.307 161.943L295.161 162.388V162.685L295.307 162.981V163.13V163.278V163.575L295.161 163.723L295.016 163.871L294.87 164.168L294.579 164.464L294.288 164.613L294.143 164.761L293.852 164.613H293.706H293.561L292.979 164.168H292.834L292.688 164.316L292.543 164.613V164.761V164.909L292.688 165.057L293.125 165.947V166.095V166.244L292.979 166.54L292.106 167.578L291.961 167.727H291.816H291.67H291.525L291.379 167.875L291.088 168.171L290.943 168.616L290.652 168.765L289.779 169.358H289.634L289.343 169.654L289.197 170.544L288.761 173.658V173.955V174.4L288.615 176.179L288.47 176.327L288.324 176.476L287.888 176.772L287.742 176.921L287.161 177.662L286.87 177.81H286.724H286.433H286.288H286.142H285.997L285.851 177.959L285.706 178.107L285.415 178.552L285.124 178.848V178.997L284.979 179.145V179.59V180.331L284.833 180.776L284.251 182.852L283.961 183.89V184.187V184.483V184.632L283.233 186.411L283.088 186.559L282.942 186.708L282.506 186.856L282.069 187.153H281.197L273.051 187.004L272.614 187.153L272.323 187.301L272.178 187.449L271.887 187.746V187.894L271.451 189.377L271.305 189.673L271.014 189.822L270.142 190.415L269.56 190.711L269.414 191.008L269.123 191.305L268.978 191.453V191.601V191.898V192.194L269.123 192.343L269.269 192.787L269.414 193.232L269.56 193.381L269.705 193.529L270.723 193.974L270.287 195.457V196.346L270.432 196.495L270.723 197.236V197.384L270.578 197.533L270.432 197.681L270.142 197.829L269.996 197.978V198.126L269.56 199.46L269.414 199.757L268.978 200.35V200.499V200.647H269.123H269.269H269.414L269.705 200.499L269.851 200.35H269.996L270.142 200.499L270.287 200.647V200.795V201.092L269.56 201.981L269.414 202.278L268.832 203.761L268.541 204.057L268.396 204.354H268.251L268.105 204.502L268.251 204.799V204.947L268.687 205.244L268.396 205.54L268.251 205.689L268.105 205.837L267.669 205.985H267.378L267.087 206.133L266.796 206.875L266.941 207.172L266.796 207.32L266.36 208.209L265.778 209.396L265.632 209.544L265.487 209.841L265.196 209.989L265.05 210.137H264.905H264.759H264.468H264.323L264.178 209.989V209.841H264.032H263.887L263.305 209.989H263.014H262.868H262.723H262.432L262.286 209.692H262.141L261.85 209.841L261.705 210.137L261.414 210.434L261.123 210.582L260.832 210.73L260.686 210.879L260.541 211.175L260.686 211.62V211.917L260.832 212.065H260.977L261.123 212.213H261.268H261.705L261.85 212.362V212.658L261.705 213.251L261.123 214.438L260.832 214.882L260.396 215.476L260.25 215.772L260.105 216.365L259.959 216.662L259.814 216.81L259.523 217.107V217.255L259.377 217.552V217.997V218.293L259.523 218.59V218.886L259.377 219.183L258.65 220.814L258.505 221.407L258.214 223.187L256.614 224.373L256.468 224.521L256.032 225.411V225.559V225.856V226.894V227.487L255.886 227.784V227.932L254.577 230.156L253.995 231.343L253.85 232.232V232.529V232.677H254.141H254.286H254.432L254.723 232.826L255.013 232.974H255.159H255.45L255.595 232.826H255.741H255.886H256.032H256.177L256.468 232.974V233.122H256.614L256.759 233.419L256.904 233.715L257.05 233.864L256.904 234.308L256.468 235.198L256.177 235.346L255.595 235.94L255.304 236.088H254.868L254.432 235.791H253.995L253.704 236.088L253.413 236.384L252.831 236.829L251.231 237.274L248.468 238.905L244.831 240.24L242.649 241.574L238.722 243.206L238.285 243.502L237.267 244.392L236.831 244.689L234.94 244.837L234.358 245.282L234.067 245.727L233.921 246.172L233.63 246.765L233.485 246.913L232.758 246.616H232.321L232.03 246.913L231.739 247.358L231.303 247.506V247.21L231.158 247.061V246.913V246.765V246.616L231.303 246.468V246.32L231.449 246.172L231.594 246.023V245.875V245.727V245.43V245.282H231.449L231.303 245.133H230.576H229.848L229.412 245.282L228.976 245.133H228.685L228.539 244.985L228.248 244.837L228.103 244.689H227.957H227.666H226.794H226.357H226.212L226.066 244.54H225.921H225.775H225.339L224.612 244.689L222.284 246.023L221.848 246.172L221.702 246.32H221.266H220.684H220.393L219.957 246.468L219.521 246.616H219.084L218.939 246.468H218.793L218.648 246.32L218.357 246.023L218.211 245.875L218.066 246.023L217.775 246.172L217.63 246.32H217.484H217.193L216.902 246.172H216.611H216.466L216.175 246.468L215.884 246.765H215.738L215.593 246.616L215.302 246.468H215.157H214.866L214.284 246.765H213.993L213.557 246.913L213.411 246.765H213.266L213.12 246.616L212.975 246.468V246.32H212.829L212.684 246.172H212.393L211.52 246.468L209.92 247.21L209.484 247.506L209.193 247.803L208.756 247.951L207.738 248.247L204.247 249.73H204.101L203.811 249.879H203.665L203.374 250.027L202.792 250.768L202.501 250.917L199.738 252.548L199.01 252.696H198.574L198.428 252.548L198.283 252.4L198.138 252.251H197.992H197.701H197.556L196.247 252.4H195.81L194.356 252.696L194.065 252.548H193.774H193.483L193.192 252.696L190.864 254.031L190.719 254.179H190.573L190.137 254.327L189.41 254.476L188.537 254.624H188.246L188.101 254.772L187.664 255.217L187.228 255.959L187.082 256.107V256.255H186.646L186.064 256.107L185.337 255.959H185.046H184.755L183.446 256.403L182.864 256.7L181.7 257.59L179.809 258.628L179.082 258.924H178.936H178.5H177.627H177.336L177.045 259.073L176.609 259.369L176.318 259.518H176.027L175.445 259.369L175.154 259.518L173.409 260.259L173.118 260.556L171.518 261.445L171.372 261.594L170.791 262.038L170.354 262.483L170.209 262.632H169.918H169.627H169.481V262.78V263.225V263.373L169.336 263.67L169.045 263.818L168.9 263.966L166.718 264.559L165.408 265.301L165.117 265.449H164.972L164.827 265.301L164.681 265.152V265.004V264.559V264.411L164.536 264.263V264.114L164.245 263.818H164.099L163.954 263.67H163.663H163.517L163.372 263.818L162.936 264.559L162.79 264.708L162.499 264.856L161.917 265.301L161.626 265.449H161.336L160.317 265.301L160.172 265.152V265.004L160.026 264.856V264.708V264.559L159.881 264.411H159.735H159.59H159.445L158.863 264.856L158.135 265.301L157.844 265.449H157.553H157.408H157.263L157.117 265.301H156.972L156.826 265.152V264.856V264.708L156.972 264.559L157.117 264.411L157.408 264.114L157.553 263.818L157.699 263.521L157.844 263.373L157.699 263.225H157.263L156.099 263.373H155.517L155.226 263.67L155.371 263.818V263.966L155.517 264.114L155.953 264.559V264.708V264.856L156.099 265.004L155.953 265.301L155.808 265.449L153.335 267.08H153.19V267.229V267.525V267.673H153.335L153.48 267.822H153.626H153.771H154.499H154.935H155.081H155.226L155.371 267.97L155.517 268.118V268.267V268.415V268.711V269.008V269.601L155.371 269.749L155.226 270.046L155.081 270.194L154.935 270.046L154.644 269.898H154.353H154.208V270.046L154.062 270.194L154.208 270.491V270.639V270.787L154.353 270.936V271.084L154.208 271.381V271.529L153.917 271.825H153.771H153.626H153.48L153.335 271.677V271.529L153.19 271.381V271.232L153.044 271.084H152.753L152.608 271.232L152.317 271.381L152.026 271.825L151.88 271.974L151.735 272.27H151.444L151.153 271.974L150.862 271.825L150.571 271.677V271.529L150.426 271.381L150.28 271.084V270.936L149.989 270.787L149.844 270.936V271.084L149.553 271.381L149.408 271.529H149.262L148.971 271.381H148.68H148.389V271.529L148.098 271.825V271.974L147.807 272.27L147.517 272.419L147.226 272.567L146.935 272.715L146.207 272.864L143.88 273.308L143.298 273.16L143.153 273.012V272.864V272.715L143.298 272.567L143.444 272.419V272.27V272.122L143.298 271.974L143.153 271.825H143.007L141.989 271.974L141.843 272.122H141.698L141.553 272.27L141.407 272.419L141.116 272.567L140.825 272.715H140.68L140.389 272.567L140.243 272.419H140.098L139.952 272.567L139.807 272.715L139.662 272.864H139.371H139.08L138.789 272.715L138.498 272.567H137.916L137.625 272.419H137.48L137.334 272.27L137.189 272.122L137.043 271.677L136.898 271.381V270.936V270.639V269.898V269.749V269.601L137.189 269.156L137.043 268.86L136.752 268.563L135.007 267.525L134.57 267.08L133.698 266.487V266.339L133.552 266.042L133.698 265.894V265.746H133.843L134.134 265.449L135.589 265.004L135.734 264.856L135.88 264.708L136.025 264.411V264.263L135.589 263.67L135.443 263.521L135.298 263.225V262.78V262.632L135.443 262.335H135.589L135.88 262.187L136.025 262.038V261.89L136.17 261.594V261.445H136.025H135.589H135.152L134.57 261.297L134.279 261.149L132.97 260.259L132.388 259.962H131.807L131.661 259.814L131.516 259.666V259.369V258.924V258.628L131.37 258.479H131.225L130.206 258.331L128.752 257.738L128.461 257.441L128.17 257.293V256.997L128.315 256.403L128.17 256.255V255.959L127.152 254.772L127.006 254.624L126.861 254.327L127.006 253.586L128.025 251.065L128.606 250.175L129.043 249.879L129.77 249.137L129.916 248.841V248.692L129.188 247.654L129.043 247.506H128.897L128.752 247.358H127.879H127.588L127.443 247.21L127.297 247.061L127.152 246.765L127.006 246.616L127.152 246.468L127.297 246.32H127.879L128.025 246.172L128.17 246.023V245.875L128.025 245.727L127.879 245.43V245.282L128.025 245.133L128.17 244.837L128.315 244.689H128.461H128.606H128.752H128.897L129.188 244.54L129.334 244.244L129.479 244.095V243.947L128.897 243.057L128.17 241.278V240.981V240.833L128.461 240.537L128.606 240.24V240.092V239.943L128.461 239.795V239.647H128.315L128.17 239.499L128.025 239.35L127.879 238.905V238.609V238.46L128.025 238.312L128.17 238.164L128.315 237.867L128.897 237.571L129.043 237.422V236.978L129.625 234.457L129.77 234.16H129.916L130.643 234.308H130.788L130.934 234.16L131.079 234.012L131.661 232.381L131.807 232.232V232.084H131.952L132.243 231.787L132.388 231.639V231.491L132.243 231.343V230.453L132.388 230.008L132.534 229.711V229.563H132.679L132.97 229.267L133.116 229.118V228.97H132.97V228.673L132.825 228.525L132.679 227.042V226.894L132.534 226.746L132.388 226.597L132.243 226.449L132.097 226.301H131.952L131.516 226.152L131.225 226.004H130.934H130.788L130.643 226.152H130.352H130.206H130.061H129.916L129.77 225.856V225.708L129.625 225.411H129.479L129.043 225.263L128.897 225.114L128.752 224.818V224.225H128.606H128.461H128.315L128.025 224.521L127.734 224.966H127.588L127.443 225.114L127.297 224.966H127.152L126.57 224.521L125.843 224.076L125.115 223.928L124.97 223.78H124.824L124.533 223.928L123.661 223.78L123.515 223.928H123.37V224.076L123.224 224.373L123.079 224.521L122.933 224.67H122.788L122.642 224.818H122.352H122.206L122.061 224.966L121.77 225.114L121.624 225.263H121.479H121.333L119.006 225.559L118.569 225.411L118.279 225.263V225.114V224.966V224.818L118.424 224.076L118.569 223.928L118.424 223.632V223.483V223.335L117.842 222.445L117.697 222.149L117.551 221.407L117.406 221.111L116.969 219.776L116.678 218.886V218.59H116.388L116.242 218.441L115.951 218.293L114.642 216.514L114.497 216.217L114.351 216.069V215.179V214.882L113.769 212.806V212.51V212.362V212.213L113.915 211.917L114.06 211.768L113.915 211.62L113.624 211.324L113.333 211.027L113.042 210.434L112.751 210.137L112.606 209.989H112.46H112.169L112.024 209.841L111.733 209.544V209.396L111.587 209.099L111.878 208.506L112.024 206.133L112.315 205.54L112.751 205.244L112.896 205.095L113.042 204.947L113.333 204.354L113.478 203.909V203.613L113.624 202.871L113.769 202.723L113.915 202.575H114.206L114.497 202.426L114.642 202.278L114.933 201.981V201.685L115.078 201.388V200.795V200.647L114.351 197.978L114.206 197.681L114.06 197.533L113.915 197.384V197.236L113.769 197.088L110.86 195.753L110.569 195.457L109.842 194.567L109.696 194.419V194.122V193.974L109.842 193.677V193.232L109.987 192.491L110.133 190.563V189.97L110.278 189.673V189.525H110.424L110.86 189.08L111.005 188.932V188.784L111.151 188.487L111.296 188.042V187.746V187.597V187.004L111.005 186.411L110.715 185.67L109.551 184.78L109.26 184.335L107.223 182.852H106.787L106.496 182.704L106.06 182.407L105.332 181.666V181.517L105.478 181.369V181.073V180.776L105.623 180.628V180.331L105.478 180.035L105.332 179.886L104.751 179.441L104.46 179.145L104.023 179.441L103.296 179.738L102.714 179.886L101.987 180.035L101.259 180.183L100.969 180.628L100.678 181.073L100.241 181.517L99.6593 181.666L99.0775 181.369L98.3502 180.331L97.7683 179.738L97.3319 179.59L93.5499 179.738L93.259 179.886L92.9681 180.183L92.8226 180.48L92.5317 180.628V180.924L92.8226 181.517V182.111L92.6771 182.852L92.3862 183.594L91.9498 183.89L91.6589 184.038H91.3679H91.0771L90.7861 183.89L90.6406 183.445L90.4952 183.149V182.704V182.407L90.2042 181.962L89.9133 181.666L89.6224 181.517L89.186 181.369V182.852L89.0406 183.445L88.7496 184.038L88.6042 184.187L88.1678 184.335H88.0223L87.8769 184.483L87.7314 184.78L87.5859 184.928L87.1496 185.225H86.8586H86.5677L85.6949 184.632L84.5312 184.187L83.9494 183.742L83.6584 183L83.3675 182.111L83.0766 181.517L82.3493 180.924L81.7674 181.814L82.4947 184.038L81.7674 184.78H81.3311L80.3128 184.187L79.7309 183.89H77.2581L75.9489 184.187L75.2216 184.335L74.9307 184.483L74.6397 184.632L72.3123 184.335L71.7305 184.632L70.7123 185.373L70.2758 185.521L69.694 185.373L67.9485 185.076H67.5121L66.3484 185.225H64.8938L64.1665 185.67L63.8755 186.411L63.5846 187.301L63.2937 188.19L62.8573 188.784V189.08L63.0027 189.377L63.1482 189.97V191.601L63.2937 192.046L63.4392 192.936L63.5846 193.381L63.4392 193.677L62.5663 194.419L62.13 194.122L60.8208 193.529L60.5299 193.232L60.3844 190.711L60.5299 187.746L60.239 186.263L59.5117 185.225L58.4934 185.076L57.6207 185.818L56.7478 188.042L56.166 188.932L55.2932 189.822L54.275 190.267L53.2568 189.822L52.9658 189.377L52.5295 188.19L51.8022 187.153L51.0748 185.67L50.9293 185.076L50.6384 183.594V182.852L50.9293 181.962V181.666L51.0748 181.221L51.2203 181.073H51.3657L52.384 180.628L52.5295 180.035L52.2385 179.738L51.6566 179.441L51.0748 179.293L50.3475 179.441L48.311 179.886L47.7291 179.441L45.1108 178.552L43.6562 178.255H33.7648L29.8372 177.662L20.3822 176.327L19.6549 175.882L18.6366 174.548L17.9093 173.807L17.0366 173.51H16.0183L15 173.807L13.9819 174.4L13.4 175.586L11.218 177.81L10.6362 178.107L9.90885 178.403L4.8177 180.331L4.23586 180.628L2.49029 182.111L1.18113 183.742Z" fill="#3B729F" stroke="white" stroke-width="0.616688" stroke-linejoin="round"/>
</svg>
